# Blender 3.5.1
# www.blender.org
mtllib Board.mtl
o Cube
v -0.843508 -0.082473 -1.646099
v -0.349095 -0.082473 -1.909829
v -0.645474 -0.082473 -1.804194
v 0.844524 -0.082473 -1.646099
v 0.646490 -0.082473 -1.804194
v 0.350111 -0.082473 -1.909829
v 0.000508 -0.082473 -1.946923
v -0.842924 0.082473 -1.644369
v -0.348511 0.082473 -1.908099
v -0.644890 0.082473 -1.802463
v 0.350695 0.082473 -1.908099
v 0.001092 0.082473 -1.945193
v 0.845108 0.082473 -1.644369
v 0.647074 0.082473 -1.802463
v -1.489258 -0.082473 -1.819593
v -1.104142 -0.082473 -2.204709
v -1.197998 -0.082473 -1.952753
v -1.437662 -0.082473 -2.012151
v -1.296700 -0.082473 -2.153113
v -1.104142 0.082473 -2.204709
v -1.489258 0.082473 -1.819593
v -1.198271 0.082473 -1.952438
v -1.296700 0.082473 -2.153113
v -1.437662 0.082473 -2.012151
v 1.104142 -0.082473 -2.204709
v 1.489258 -0.082473 -1.819593
v 1.198195 -0.082473 -1.952526
v 1.296700 -0.082473 -2.153113
v 1.437662 -0.082473 -2.012151
v 1.489258 0.082473 -1.819593
v 1.104142 0.082473 -2.204709
v 1.198694 0.082473 -1.951950
v 1.437662 0.082473 -2.012151
v 1.296700 0.082473 -2.153113
v -0.867185 -0.082473 -1.582604
v -0.781790 -0.082473 -1.459615
v -0.861171 -0.082473 -1.495637
v 0.782807 -0.082473 -1.459615
v 0.868201 -0.082473 -1.582607
v 0.862187 -0.082473 -1.495638
v -0.781207 0.082473 -1.457884
v -0.866602 0.082473 -1.580873
v -0.860587 0.082473 -1.493907
v 0.868785 0.082473 -1.580876
v 0.783391 0.082473 -1.457884
v 0.862771 0.082473 -1.493908
v -1.366805 -0.082473 2.204709
v -1.489258 -0.082473 2.082256
v -1.453393 -0.082473 2.168844
v -1.489258 0.082473 2.082256
v -1.366805 0.082473 2.204709
v -1.453393 0.082473 2.168844
v 1.489258 -0.082473 2.082256
v 1.366805 -0.082473 2.204709
v 1.453393 -0.082473 2.168844
v 1.366805 0.082473 2.204709
v 1.489258 0.082473 2.082256
v 1.453393 0.082473 2.168844
vn -0.0000 -1.0000 -0.0000
vn -0.0000 1.0000 -0.0000
vn -0.1305 -0.0000 -0.9914
vn 0.1305 -0.0000 -0.9914
vn -0.9370 -0.0003 0.3494
vn -0.9894 0.0020 0.1449
vn -0.9899 0.0020 0.1420
vn 0.2221 -0.0110 0.9750
vn 0.2222 -0.0110 0.9749
vn 0.0002 -0.0105 0.9999
vn -0.0002 -0.0105 0.9999
vn -0.2217 -0.0094 0.9751
vn -0.2226 -0.0094 0.9749
vn 0.9914 -0.0000 -0.1305
vn 0.9808 -0.0000 0.1951
vn 0.4866 -0.0109 0.8735
vn 0.4863 -0.0109 0.8737
vn 0.9898 -0.0050 0.1421
vn 0.9895 -0.0050 0.1448
vn 0.9370 -0.0070 0.3494
vn -0.4872 -0.0074 0.8733
vn -0.4857 -0.0074 0.8741
vn -0.6239 -0.0060 0.7815
vn 0.6239 -0.0104 0.7815
vn -0.9914 -0.0000 -0.1305
vn -0.8660 -0.0000 -0.5000
vn -0.7071 -0.0000 -0.7071
vn -0.2588 -0.0000 -0.9659
vn 0.2588 -0.0000 -0.9659
vn 0.7071 -0.0000 -0.7071
vn 0.8660 -0.0000 -0.5000
vn -0.2112 0.0110 -0.9774
vn 0.2121 0.0095 -0.9772
vn 0.2106 0.0095 -0.9775
vn -0.2116 0.0110 -0.9773
vn 0.9976 -0.0028 -0.0690
vn 0.4132 0.0081 -0.9106
vn -0.4132 0.0110 -0.9106
vn -0.9976 0.0043 -0.0690
vn -0.9808 -0.0000 0.1951
vn -0.1951 -0.0000 0.9808
vn -0.3827 -0.0000 0.9239
vn -0.9239 -0.0000 0.3827
vn 0.9239 -0.0000 0.3827
vn 0.3827 -0.0000 0.9239
vn 0.1951 -0.0000 0.9808
vt 0.179201 0.531671
vt 0.000000 0.000000
vt 0.220699 0.516719
vt 0.000000 0.000000
vt 0.195823 0.522708
vt 0.000000 0.000000
vt 0.320885 0.531671
vt 0.000000 0.000000
vt 0.304263 0.522708
vt 0.000000 0.000000
vt 0.279386 0.516719
vt 0.000000 0.000000
vt 0.250043 0.514616
vt 0.000000 0.000000
vt 0.820750 0.531770
vt 0.000000 0.000000
vt 0.779252 0.516817
vt 0.000000 0.000000
vt 0.804129 0.522806
vt 0.000000 0.000000
vt 0.720565 0.516817
vt 0.000000 0.000000
vt 0.749908 0.514714
vt 0.000000 0.000000
vt 0.679066 0.531770
vt 0.000000 0.000000
vt 0.695688 0.522806
vt 0.000000 0.000000
vt 0.125000 0.521835
vt 0.375000 0.228165
vt 0.157324 0.500000
vt 0.143489 0.510804
vt 0.375000 0.282324
vt 0.149447 0.514285
vt 0.125000 0.510917
vt 0.375000 0.239083
vt 0.136387 0.506654
vt 0.375000 0.266162
vt 0.842676 0.500000
vt 0.856546 0.510807
vt 0.625000 0.282324
vt 0.875000 0.521835
vt 0.625000 0.228165
vt 0.850576 0.514303
vt 0.863629 0.506659
vt 0.625000 0.266162
vt 0.875000 0.510917
vt 0.625000 0.239083
vt 0.342676 0.500000
vt 0.356536 0.510806
vt 0.375000 0.467676
vt 0.375000 0.521835
vt 0.350570 0.514298
vt 0.363625 0.506657
vt 0.375000 0.483838
vt 0.375000 0.510917
vt 0.625000 0.521835
vt 0.657324 0.500000
vt 0.643401 0.510812
vt 0.625000 0.467676
vt 0.649388 0.514331
vt 0.625000 0.510917
vt 0.636345 0.506666
vt 0.625000 0.483838
vt 0.177213 0.535271
vt 0.000000 0.000000
vt 0.184381 0.542244
vt 0.000000 0.000000
vt 0.177718 0.540202
vt 0.000000 0.000000
vt 0.315704 0.542245
vt 0.000000 0.000000
vt 0.322872 0.535271
vt 0.000000 0.000000
vt 0.322367 0.540202
vt 0.000000 0.000000
vt 0.815570 0.542343
vt 0.000000 0.000000
vt 0.822738 0.535370
vt 0.000000 0.000000
vt 0.822233 0.540300
vt 0.000000 0.000000
vt 0.677079 0.535369
vt 0.000000 0.000000
vt 0.684247 0.542343
vt 0.000000 0.000000
vt 0.677584 0.540300
vt 0.000000 0.000000
vt 0.135278 0.750000
vt 0.375000 0.989722
vt 0.125000 0.743057
vt 0.375000 0.006943
vt 0.128010 0.747967
vt 0.375000 1.000000
vt 0.375000 0.000000
vt 0.875000 0.743057
vt 0.625000 0.006943
vt 0.864722 0.750000
vt 0.625000 0.989722
vt 0.871990 0.747966
vt 0.625000 1.000000
vt 0.625000 0.000000
vt 0.375000 0.743057
vt 0.364722 0.750000
vt 0.375000 0.760278
vt 0.371990 0.747967
vt 0.375000 0.750000
vt 0.635278 0.750000
vt 0.625000 0.760278
vt 0.625000 0.743057
vt 0.628010 0.747967
vt 0.625000 0.750000
s 1
usemtl Material.001
f 1/1/1 17/34/1 16/31/1 25/49/1 27/53/1 4/7/1 5/9/1 6/11/1 7/13/1 2/3/1 3/5/1
f 8/15/2 22/44/2 21/42/2 50/96/2 52/100/2 51/98/2 56/108/2 58/111/2 57/110/2 30/57/2 32/61/2 13/25/2 44/83/2 46/87/2 45/85/2 41/77/2 43/81/2 42/79/2
f 4/7/1 27/53/1 26/52/1 53/103/1 55/106/1 54/104/1 47/89/1 49/93/1 48/91/1 15/29/1 17/34/1 1/1/1 35/65/1 37/69/1 36/67/1 38/71/1 40/75/1 39/73/1
f 16/33/3 20/41/3 31/60/4 25/51/4
f 13/25/2 32/61/2 31/58/2 20/39/2 22/44/2 8/15/2 10/19/2 9/17/2 12/23/2 11/21/2 14/27/2
f 26/52/14 30/57/14 57/110/15 53/103/15
f 15/29/1 18/35/1 17/34/1
f 18/35/1 19/37/1 17/34/1
f 19/37/1 16/32/1 17/34/1
f 20/40/2 23/45/2 22/44/2
f 23/45/2 24/47/2 22/44/2
f 24/47/2 21/42/2 22/44/2
f 25/50/1 28/54/1 27/53/1
f 28/54/1 29/56/1 27/53/1
f 29/56/1 26/52/1 27/53/1
f 30/57/2 33/62/2 32/61/2
f 33/62/2 34/63/2 32/61/2
f 34/63/2 31/59/2 32/61/2
f 15/30/25 21/43/25 24/48/26 18/36/26
f 18/36/26 24/48/26 23/46/27 19/38/27
f 19/38/28 23/46/28 20/41/3 16/33/3
f 25/51/4 31/60/4 34/64/29 28/55/29
f 28/55/30 34/64/30 33/62/31 29/56/31
f 29/56/31 33/62/31 30/57/14 26/52/14
f 48/92/40 50/97/40 21/43/25 15/30/25
f 47/90/41 51/99/41 52/101/42 49/94/42
f 49/95/43 52/102/43 50/97/40 48/92/40
f 53/103/15 57/110/15 58/112/44 55/107/44
f 55/107/45 58/112/45 56/109/46 54/105/46
f 54/105/46 56/109/46 51/99/41 47/90/41
usemtl 
f 4/8/5 39/74/6 44/84/7 13/26/5
f 9/18/8 2/4/9 7/14/10 12/24/11
f 12/24/11 7/14/10 6/12/12 11/22/13
f 10/20/16 3/6/17 2/4/9 9/18/8
f 42/80/18 35/66/19 1/2/20 8/16/20
f 14/28/21 5/10/22 4/8/23 13/26/23
f 8/16/24 1/2/24 3/6/17 10/20/16
f 11/22/13 6/12/12 5/10/22 14/28/21
f 38/72/32 36/68/33 41/78/34 45/86/35
f 35/66/19 42/80/18 43/82/36 37/70/36
f 37/70/37 43/82/37 41/78/34 36/68/33
f 38/72/32 45/86/35 46/88/38 40/76/38
f 40/76/39 46/88/39 44/84/7 39/74/6
