# Blender 3.5.1
# www.blender.org
mtllib Knife.mtl
o Cube.002
v -0.198661 1.038227 -1.608607
v -0.198661 0.004245 -1.608607
v 0.198661 0.004245 -1.608607
v 0.198661 1.038227 -1.608607
v -0.198661 1.074884 -5.406393
v -0.100003 0.996625 -5.485413
v -0.100003 0.045847 -5.485413
v -0.198661 -0.032412 -5.406393
v 0.100003 0.045847 -5.485413
v 0.198661 -0.032412 -5.406393
v 0.198661 1.074884 -5.406393
v 0.100003 0.996625 -5.485413
v 0.198661 0.521236 -2.327500
v 0.198661 0.393956 -2.380220
v 0.198661 0.648516 -2.380220
v 0.198661 0.341235 -2.507500
v 0.198661 0.701237 -2.507500
v 0.198661 0.521236 -3.327500
v 0.198661 0.521236 -2.687501
v 0.198661 0.550262 -3.339523
v 0.198661 0.584876 -2.661140
v 0.198661 0.648516 -2.634780
v 0.198661 0.341235 -3.507500
v 0.198661 0.393956 -3.634780
v 0.198661 0.459385 -3.661881
v 0.198661 0.393956 -3.380220
v 0.198661 0.393956 -2.634780
v 0.198661 0.701237 -3.507500
v 0.198661 0.648516 -3.380220
v 0.198661 0.457596 -4.353860
v 0.198661 0.521236 -4.327499
v 0.198661 0.521236 -3.687501
v 0.198661 0.648516 -3.634780
v 0.198661 0.341235 -4.507500
v 0.198661 0.521236 -4.687501
v 0.198661 0.393956 -4.634780
v 0.198661 0.648516 -4.634780
v 0.198661 0.701237 -4.507500
v 0.198661 0.393956 -4.380220
v 0.198661 0.648516 -4.380220
v -0.198661 0.521236 -2.327500
v -0.198661 0.393956 -2.380220
v -0.198661 0.648516 -2.380220
v -0.198661 0.341235 -2.507500
v -0.198661 0.701237 -2.507500
v -0.198661 0.521236 -3.327500
v -0.198661 0.521236 -2.687501
v -0.198661 0.492210 -3.339523
v -0.198661 0.477849 -2.669529
v -0.198661 0.701237 -3.507500
v -0.198661 0.648516 -3.634780
v -0.198661 0.648516 -3.380220
v -0.198661 0.648516 -2.634780
v -0.198661 0.393956 -2.634780
v -0.198661 0.341235 -3.507500
v -0.198661 0.393956 -3.380220
v -0.198661 0.564623 -4.345471
v -0.198661 0.521236 -4.327499
v -0.198661 0.521236 -3.687501
v -0.198661 0.477849 -3.669529
v -0.198661 0.393956 -3.634780
v -0.198661 0.701237 -4.507500
v -0.198661 0.521236 -4.687501
v -0.198661 0.393956 -4.634780
v -0.198661 0.648516 -4.634780
v -0.198661 0.341235 -4.507500
v -0.198661 0.393956 -4.380220
v -0.198661 0.648516 -4.380220
vn 1.0000 -0.0000 -0.0000
vn -0.0000 1.0000 0.0097
vn -0.0000 -1.0000 0.0097
vn -0.0000 -0.0000 -1.0000
vn -0.0000 -0.0000 1.0000
vn -0.6251 -0.0000 -0.7805
vn -0.0000 -0.7105 -0.7037
vn -0.0000 0.7105 -0.7037
vn 0.6251 -0.0000 -0.7805
vn -1.0000 -0.0000 -0.0000
vn -0.0000 0.3827 0.9239
vn -0.0000 0.9239 0.3827
vn -0.0000 0.9239 -0.3827
vn -0.0000 0.3827 -0.9239
vn -0.0000 -0.3827 -0.9239
vn -0.0000 -0.9239 -0.3827
vn -0.0000 -0.9239 0.3827
vn -0.0000 -0.3827 0.9239
vt 0.875000 0.500000
vt 0.625000 0.250000
vt 0.125000 0.500000
vt 0.375000 0.250000
vt 0.375000 0.500000
vt 0.625000 0.500000
vt 0.875000 0.500000
vt 0.625000 0.250000
vt 0.607183 0.312077
vt 0.392817 0.312077
vt 0.125000 0.500000
vt 0.375000 0.250000
vt 0.392817 0.437923
vt 0.375000 0.500000
vt 0.625000 0.500000
vt 0.607183 0.437923
vt 0.500000 0.500000
vt 0.500000 0.750000
vt 0.469614 0.500000
vt 0.625000 0.750000
vt 0.530386 0.500000
vt 0.375000 0.750000
vt 0.457142 0.500000
vt 0.750000 0.750000
vt 0.542858 0.500000
vt 0.250000 0.750000
vt 0.500000 0.500000
vt 0.500000 0.750000
vt 0.500000 0.500000
vt 1.000000 0.750000
vt 0.000000 0.750000
vt 0.506800 0.500000
vt 0.471494 0.750000
vt 0.515108 0.500000
vt 0.062500 0.750000
vt 0.530230 0.500000
vt 0.125000 0.750000
vt 0.457969 0.500000
vt 0.750000 0.750000
vt 0.470352 0.500000
vt 0.875000 0.750000
vt 0.485600 0.500000
vt 0.939257 0.750000
vt 0.470207 0.500000
vt 0.625000 0.750000
vt 0.469770 0.500000
vt 0.875000 0.750000
vt 0.542031 0.500000
vt 0.250000 0.750000
vt 0.529793 0.500000
vt 0.375000 0.750000
vt 0.485380 0.500000
vt 0.562500 0.750000
vt 0.500000 0.500000
vt 0.500000 0.750000
vt 0.500000 0.500000
vt 1.000000 0.750000
vt 0.000000 0.750000
vt 0.529648 0.500000
vt 0.125000 0.750000
vt 0.458767 0.500000
vt 0.750000 0.750000
vt 0.500000 0.500000
vt 1.000000 0.750000
vt 0.000000 0.750000
vt 0.470919 0.500000
vt 0.875000 0.750000
vt 0.529081 0.500000
vt 0.125000 0.750000
vt 0.541233 0.500000
vt 0.250000 0.750000
vt 0.470774 0.500000
vt 0.625000 0.750000
vt 0.529226 0.500000
vt 0.375000 0.750000
vt 0.500000 0.250000
vt 0.500000 0.670439
vt 0.469614 0.250000
vt 0.625000 0.670439
vt 0.530386 0.250000
vt 0.375000 0.670439
vt 0.457142 0.250000
vt 0.750000 0.670439
vt 0.542858 0.250000
vt 0.250000 0.670439
vt 0.500000 0.250000
vt 0.500000 0.670439
vt 0.500000 0.250000
vt 1.000000 0.670439
vt 0.000000 0.670439
vt 0.493200 0.250000
vt 0.528506 0.670439
vt 0.489702 0.250000
vt 0.957390 0.670439
vt 0.542031 0.250000
vt 0.250000 0.670439
vt 0.529648 0.250000
vt 0.125000 0.670439
vt 0.529793 0.250000
vt 0.375000 0.670439
vt 0.530230 0.250000
vt 0.125000 0.670439
vt 0.469770 0.250000
vt 0.875000 0.670439
vt 0.457969 0.250000
vt 0.750000 0.670439
vt 0.470207 0.250000
vt 0.625000 0.670439
vt 0.509969 0.250000
vt 0.457390 0.670439
vt 0.500000 0.250000
vt 0.500000 0.670439
vt 0.500000 0.250000
vt 1.000000 0.670439
vt 0.000000 0.670439
vt 0.489900 0.250000
vt 0.957390 0.670439
vt 0.470352 0.250000
vt 0.875000 0.670439
vt 0.541233 0.250000
vt 0.250000 0.670439
vt 0.500000 0.250000
vt 1.000000 0.670439
vt 0.000000 0.670439
vt 0.470919 0.250000
vt 0.875000 0.670439
vt 0.529081 0.250000
vt 0.125000 0.670439
vt 0.458767 0.250000
vt 0.750000 0.670439
vt 0.470774 0.250000
vt 0.625000 0.670439
vt 0.529226 0.250000
vt 0.375000 0.670439
s 1
usemtl Material
f 15/21/1 4/6/1 3/5/1 14/19/1 13/17/1
f 18/27/1 19/29/1 27/46/1 16/23/1 14/19/1 3/5/1 10/14/1 11/15/1 4/6/1 15/21/1 17/25/1 22/36/1 21/34/1 20/32/1 29/50/1 28/48/1 33/59/1 32/56/1 31/54/1 40/74/1 38/70/1 37/68/1 35/63/1 36/66/1 34/61/1 39/72/1 30/52/1 25/42/1 24/40/1 23/38/1 26/44/1
f 19/29/1 18/27/1 20/32/1 21/34/1
f 31/54/1 32/56/1 25/42/1 30/52/1
f 1/1/2 4/6/2 11/15/2 5/7/2
f 3/5/3 2/3/3 8/11/3 10/14/3
f 7/10/4 6/9/4 12/16/4 9/13/4
f 2/3/5 3/5/5 4/6/5 1/1/5
f 6/9/6 7/10/6 8/12/6 5/8/6
f 10/14/7 8/12/7 7/10/7 9/13/7
f 5/8/8 11/15/8 12/16/8 6/9/8
f 11/15/9 10/14/9 9/13/9 12/16/9
f 42/78/10 2/4/10 1/2/10 43/80/10 41/76/10
f 47/88/10 53/101/10 45/84/10 43/80/10 1/2/10 5/8/10 8/12/10 2/4/10 42/78/10 44/82/10 54/103/10 49/93/10 48/91/10 56/107/10 55/105/10 61/118/10 60/116/10 58/111/10 67/131/10 66/129/10 64/125/10 63/122/10 65/127/10 62/120/10 68/133/10 57/109/10 59/113/10 51/97/10 50/95/10 52/99/10 46/86/10
f 48/91/10 49/93/10 47/88/10 46/86/10
f 59/113/10 57/109/10 58/111/10 60/116/10
s 0
f 36/67/11 35/64/11 63/123/11 64/126/11
f 34/62/12 36/67/12 64/126/12 66/130/12
f 39/73/13 34/62/13 66/130/13 67/132/13
f 58/112/14 31/55/14 30/53/14 39/73/14 67/132/14
f 68/134/15 40/75/15 31/55/15 58/112/15 57/110/15
f 62/121/16 38/71/16 40/75/16 68/134/16
f 65/128/17 37/69/17 38/71/17 62/121/17
f 35/65/18 37/69/18 65/128/18 63/124/18
f 24/41/11 25/43/11 32/57/11 59/114/11 60/117/11 61/119/11
f 23/39/12 24/41/12 61/119/12 55/106/12
f 26/45/13 23/39/13 55/106/13 56/108/13
f 18/28/14 26/45/14 56/108/14 48/92/14 46/87/14
f 52/100/15 29/51/15 20/33/15 18/28/15 46/87/15
f 50/96/16 28/49/16 29/51/16 52/100/16
f 51/98/17 33/60/17 28/49/17 50/96/17
f 59/115/18 32/58/18 33/60/18 51/98/18
f 27/47/11 19/30/11 47/89/11 49/94/11 54/104/11
f 16/24/12 27/47/12 54/104/12 44/83/12
f 14/20/13 16/24/13 44/83/13 42/79/13
f 41/77/14 13/18/14 14/20/14 42/79/14
f 43/81/15 15/22/15 13/18/15 41/77/15
f 45/85/16 17/26/16 15/22/16 43/81/16
f 53/102/17 22/37/17 17/26/17 45/85/17
f 19/31/18 21/35/18 22/37/18 53/102/18 47/90/18
o Cube.003
v 0.198661 0.457596 -4.353860
v 0.198661 0.521236 -4.327499
v 0.198661 0.341235 -4.507500
v 0.198661 0.521236 -4.687500
v 0.198661 0.393956 -4.634779
v 0.198661 0.648516 -4.634779
v 0.198661 0.701237 -4.507500
v 0.198661 0.393956 -4.380220
v 0.198661 0.648516 -4.380220
v 0.223631 0.457596 -4.353860
v 0.223631 0.521236 -4.327499
v 0.223631 0.521236 -4.687500
v 0.223631 0.393956 -4.634779
v 0.223631 0.648516 -4.634779
v 0.223631 0.701237 -4.507500
v 0.223631 0.341235 -4.507500
v 0.223631 0.393956 -4.380220
v 0.223631 0.648516 -4.380220
vn 1.0000 -0.0000 -0.0000
vn -1.0000 -0.0000 -0.0000
vn -0.0000 -0.3827 0.9239
vn -0.0000 0.3827 -0.9239
vn -0.0000 -0.9239 0.3827
vn -0.0000 0.9239 0.3827
vn -0.0000 0.9239 -0.3827
vn -0.0000 0.3827 0.9239
vn -0.0000 -0.9239 -0.3827
vn -0.0000 -0.3827 -0.9239
vt 0.000000 0.000000
vt 0.000000 0.000000
vt 0.000000 0.000000
vt 0.000000 0.000000
vt 0.000000 0.000000
vt 0.000000 0.000000
vt 0.000000 0.000000
vt 0.000000 0.000000
vt 0.000000 0.000000
vt 0.000000 0.000000
vt 0.000000 0.000000
vt 0.000000 0.000000
vt 0.000000 0.000000
vt 0.000000 0.000000
vt 0.000000 0.000000
vt 0.000000 0.000000
vt 0.000000 0.000000
vt 0.000000 0.000000
s 0
usemtl Material.002
f 76/142/19 71/137/19 73/139/19 72/138/19 74/140/19 75/141/19 77/143/19 70/136/19 69/135/19
f 85/151/20 78/144/20 79/145/20 86/152/20 83/149/20 82/148/20 80/146/20 81/147/20 84/150/20
f 74/140/21 72/138/21 80/146/21 82/148/21
f 76/142/22 69/135/22 78/144/22 85/151/22
f 75/141/23 74/140/23 82/148/23 83/149/23
f 69/135/22 70/136/22 79/145/22 78/144/22
f 73/139/24 71/137/24 84/150/24 81/147/24
f 71/137/25 76/142/25 85/151/25 84/150/25
f 72/138/26 73/139/26 81/147/26 80/146/26
f 77/143/27 75/141/27 83/149/27 86/152/27
f 70/136/28 77/143/28 86/152/28 79/145/28
o Cube.004
v 0.198661 0.457596 -3.353860
v 0.198661 0.521236 -3.327500
v 0.198661 0.341235 -3.507500
v 0.198661 0.521236 -3.687501
v 0.198661 0.393956 -3.634780
v 0.198661 0.648516 -3.634780
v 0.198661 0.701237 -3.507500
v 0.198661 0.393956 -3.380220
v 0.198661 0.648516 -3.380220
v 0.223631 0.457596 -3.353860
v 0.223631 0.521236 -3.327500
v 0.223631 0.521236 -3.687501
v 0.223631 0.393956 -3.634780
v 0.223631 0.648516 -3.634780
v 0.223631 0.701237 -3.507500
v 0.223631 0.341235 -3.507500
v 0.223631 0.393956 -3.380220
v 0.223631 0.648516 -3.380220
vn 1.0000 -0.0000 -0.0000
vn -1.0000 -0.0000 -0.0000
vn -0.0000 0.3827 0.9239
vn -0.0000 -0.9239 -0.3827
vn -0.0000 -0.3827 -0.9239
vn -0.0000 -0.3827 0.9239
vn -0.0000 0.3827 -0.9239
vn -0.0000 -0.9239 0.3827
vn -0.0000 0.9239 0.3827
vn -0.0000 0.9239 -0.3827
vt 0.000000 0.000000
vt 0.000000 0.000000
vt 0.000000 0.000000
vt 0.000000 0.000000
vt 0.000000 0.000000
vt 0.000000 0.000000
vt 0.000000 0.000000
vt 0.000000 0.000000
vt 0.000000 0.000000
vt 0.000000 0.000000
vt 0.000000 0.000000
vt 0.000000 0.000000
vt 0.000000 0.000000
vt 0.000000 0.000000
vt 0.000000 0.000000
vt 0.000000 0.000000
vt 0.000000 0.000000
vt 0.000000 0.000000
s 0
usemtl Material.002
f 94/160/29 89/155/29 91/157/29 90/156/29 92/158/29 93/159/29 95/161/29 88/154/29 87/153/29
f 103/169/30 96/162/30 97/163/30 104/170/30 101/167/30 100/166/30 98/164/30 99/165/30 102/168/30
f 90/156/31 91/157/31 99/165/31 98/164/31
f 95/161/32 93/159/32 101/167/32 104/170/32
f 88/154/33 95/161/33 104/170/33 97/163/33
f 92/158/34 90/156/34 98/164/34 100/166/34
f 94/160/35 87/153/35 96/162/35 103/169/35
f 93/159/36 92/158/36 100/166/36 101/167/36
f 87/153/35 88/154/35 97/163/35 96/162/35
f 91/157/37 89/155/37 102/168/37 99/165/37
f 89/155/38 94/160/38 103/169/38 102/168/38
o Cube.005
v 0.198661 0.457596 -2.353860
v 0.198661 0.521236 -2.327500
v 0.198661 0.341235 -2.507500
v 0.198661 0.521236 -2.687501
v 0.198661 0.393956 -2.634780
v 0.198661 0.648516 -2.634780
v 0.198661 0.701237 -2.507500
v 0.198661 0.393956 -2.380220
v 0.198661 0.648516 -2.380220
v 0.223631 0.457596 -2.353860
v 0.223631 0.521236 -2.327500
v 0.223631 0.521236 -2.687501
v 0.223631 0.393956 -2.634780
v 0.223631 0.648516 -2.634780
v 0.223631 0.701237 -2.507500
v 0.223631 0.341235 -2.507500
v 0.223631 0.393956 -2.380220
v 0.223631 0.648516 -2.380220
vn 1.0000 -0.0000 -0.0000
vn -1.0000 -0.0000 -0.0000
vn -0.0000 0.9239 0.3827
vn -0.0000 0.9239 -0.3827
vn -0.0000 0.3827 0.9239
vn -0.0000 -0.9239 -0.3827
vn -0.0000 -0.3827 -0.9239
vn -0.0000 -0.3827 0.9239
vn -0.0000 0.3827 -0.9239
vn -0.0000 -0.9239 0.3827
vt 0.000000 0.000000
vt 0.000000 0.000000
vt 0.000000 0.000000
vt 0.000000 0.000000
vt 0.000000 0.000000
vt 0.000000 0.000000
vt 0.000000 0.000000
vt 0.000000 0.000000
vt 0.000000 0.000000
vt 0.000000 0.000000
vt 0.000000 0.000000
vt 0.000000 0.000000
vt 0.000000 0.000000
vt 0.000000 0.000000
vt 0.000000 0.000000
vt 0.000000 0.000000
vt 0.000000 0.000000
vt 0.000000 0.000000
s 0
usemtl Material.002
f 112/178/39 107/173/39 109/175/39 108/174/39 110/176/39 111/177/39 113/179/39 106/172/39 105/171/39
f 121/187/40 114/180/40 115/181/40 122/188/40 119/185/40 118/184/40 116/182/40 117/183/40 120/186/40
f 109/175/41 107/173/41 120/186/41 117/183/41
f 107/173/42 112/178/42 121/187/42 120/186/42
f 108/174/43 109/175/43 117/183/43 116/182/43
f 113/179/44 111/177/44 119/185/44 122/188/44
f 106/172/45 113/179/45 122/188/45 115/181/45
f 110/176/46 108/174/46 116/182/46 118/184/46
f 112/178/47 105/171/47 114/180/47 121/187/47
f 111/177/48 110/176/48 118/184/48 119/185/48
f 105/171/47 106/172/47 115/181/47 114/180/47
o Cube.006
v -0.198661 0.564623 -4.345471
v -0.198661 0.521236 -4.327499
v -0.198661 0.701237 -4.507500
v -0.198661 0.521236 -4.687501
v -0.198661 0.393956 -4.634780
v -0.198661 0.648516 -4.634780
v -0.198661 0.341235 -4.507500
v -0.198661 0.393956 -4.380220
v -0.198661 0.648516 -4.380220
v -0.223631 0.564623 -4.345471
v -0.223631 0.521236 -4.327499
v -0.223631 0.521236 -4.687501
v -0.223631 0.393956 -4.634780
v -0.223631 0.648516 -4.634780
v -0.223631 0.341235 -4.507500
v -0.223631 0.393956 -4.380220
v -0.223631 0.701237 -4.507500
v -0.223631 0.648516 -4.380220
vn -1.0000 -0.0000 -0.0000
vn 1.0000 -0.0000 -0.0000
vn -0.0000 0.9239 0.3827
vn -0.0000 -0.3827 -0.9239
vn -0.0000 0.3827 -0.9239
vn -0.0000 0.3827 0.9239
vn -0.0000 -0.9239 0.3827
vn -0.0000 -0.9239 -0.3827
vn -0.0000 -0.3827 0.9239
vn -0.0000 0.9239 -0.3827
vt 0.000000 0.000000
vt 0.000000 0.000000
vt 0.000000 0.000000
vt 0.000000 0.000000
vt 0.000000 0.000000
vt 0.000000 0.000000
vt 0.000000 0.000000
vt 0.000000 0.000000
vt 0.000000 0.000000
vt 0.000000 0.000000
vt 0.000000 0.000000
vt 0.000000 0.000000
vt 0.000000 0.000000
vt 0.000000 0.000000
vt 0.000000 0.000000
vt 0.000000 0.000000
vt 0.000000 0.000000
vt 0.000000 0.000000
s 0
usemtl Material.002
f 131/197/49 125/191/49 128/194/49 126/192/49 127/193/49 129/195/49 130/196/49 124/190/49 123/189/49
f 140/206/50 132/198/50 133/199/50 138/204/50 137/203/50 135/201/50 134/200/50 136/202/50 139/205/50
f 129/195/51 127/193/51 135/201/51 137/203/51
f 123/189/52 124/190/52 133/199/52 132/198/52
f 131/197/52 123/189/52 132/198/52 140/206/52
f 124/190/53 130/196/53 138/204/53 133/199/53
f 127/193/54 126/192/54 134/200/54 135/201/54
f 128/194/55 125/191/55 139/205/55 136/202/55
f 125/191/56 131/197/56 140/206/56 139/205/56
f 126/192/57 128/194/57 136/202/57 134/200/57
f 130/196/58 129/195/58 137/203/58 138/204/58
o Cube.007
v -0.198661 0.564623 -3.345471
v -0.198661 0.521236 -3.327500
v -0.198661 0.701237 -3.507500
v -0.198661 0.521236 -3.687501
v -0.198661 0.393956 -3.634780
v -0.198661 0.648516 -3.634780
v -0.198661 0.341235 -3.507500
v -0.198661 0.393956 -3.380221
v -0.198661 0.648516 -3.380221
v -0.223631 0.564623 -3.345471
v -0.223631 0.521236 -3.327500
v -0.223631 0.521236 -3.687501
v -0.223631 0.393956 -3.634780
v -0.223631 0.648516 -3.634780
v -0.223631 0.341235 -3.507500
v -0.223631 0.393956 -3.380221
v -0.223631 0.701237 -3.507500
v -0.223631 0.648516 -3.380221
vn -1.0000 -0.0000 -0.0000
vn 1.0000 -0.0000 -0.0000
vn -0.0000 -0.3827 0.9239
vn -0.0000 0.9239 -0.3827
vn -0.0000 0.9239 0.3827
vn -0.0000 -0.3827 -0.9239
vn -0.0000 0.3827 -0.9239
vn -0.0000 0.3827 0.9239
vn -0.0000 -0.9239 0.3827
vn -0.0000 -0.9239 -0.3827
vt 0.000000 0.000000
vt 0.000000 0.000000
vt 0.000000 0.000000
vt 0.000000 0.000000
vt 0.000000 0.000000
vt 0.000000 0.000000
vt 0.000000 0.000000
vt 0.000000 0.000000
vt 0.000000 0.000000
vt 0.000000 0.000000
vt 0.000000 0.000000
vt 0.000000 0.000000
vt 0.000000 0.000000
vt 0.000000 0.000000
vt 0.000000 0.000000
vt 0.000000 0.000000
vt 0.000000 0.000000
vt 0.000000 0.000000
s 0
usemtl Material.002
f 149/215/59 143/209/59 146/212/59 144/210/59 145/211/59 147/213/59 148/214/59 142/208/59 141/207/59
f 158/224/60 150/216/60 151/217/60 156/222/60 155/221/60 153/219/60 152/218/60 154/220/60 157/223/60
f 144/210/61 146/212/61 154/220/61 152/218/61
f 148/214/62 147/213/62 155/221/62 156/222/62
f 147/213/63 145/211/63 153/219/63 155/221/63
f 141/207/64 142/208/64 151/217/64 150/216/64
f 149/215/64 141/207/64 150/216/64 158/224/64
f 142/208/65 148/214/65 156/222/65 151/217/65
f 145/211/66 144/210/66 152/218/66 153/219/66
f 146/212/67 143/209/67 157/223/67 154/220/67
f 143/209/68 149/215/68 158/224/68 157/223/68
o Cube.008
v -0.198661 0.564623 -2.345471
v -0.198661 0.521236 -2.327500
v -0.198661 0.701237 -2.507500
v -0.198661 0.521236 -2.687501
v -0.198661 0.393956 -2.634780
v -0.198661 0.648516 -2.634780
v -0.198661 0.341235 -2.507500
v -0.198661 0.393956 -2.380221
v -0.198661 0.648516 -2.380221
v -0.223631 0.564623 -2.345471
v -0.223631 0.521236 -2.327500
v -0.223631 0.521236 -2.687501
v -0.223631 0.393956 -2.634780
v -0.223631 0.648516 -2.634780
v -0.223631 0.341235 -2.507500
v -0.223631 0.393956 -2.380221
v -0.223631 0.701237 -2.507500
v -0.223631 0.648516 -2.380221
vn -1.0000 -0.0000 -0.0000
vn 1.0000 -0.0000 -0.0000
vn -0.0000 -0.9239 0.3827
vn -0.0000 -0.9239 -0.3827
vn -0.0000 -0.3827 0.9239
vn -0.0000 0.9239 -0.3827
vn -0.0000 0.9239 0.3827
vn -0.0000 -0.3827 -0.9239
vn -0.0000 0.3827 -0.9239
vn -0.0000 0.3827 0.9239
vt 0.000000 0.000000
vt 0.000000 0.000000
vt 0.000000 0.000000
vt 0.000000 0.000000
vt 0.000000 0.000000
vt 0.000000 0.000000
vt 0.000000 0.000000
vt 0.000000 0.000000
vt 0.000000 0.000000
vt 0.000000 0.000000
vt 0.000000 0.000000
vt 0.000000 0.000000
vt 0.000000 0.000000
vt 0.000000 0.000000
vt 0.000000 0.000000
vt 0.000000 0.000000
vt 0.000000 0.000000
vt 0.000000 0.000000
s 0
usemtl Material.002
f 167/233/69 161/227/69 164/230/69 162/228/69 163/229/69 165/231/69 166/232/69 160/226/69 159/225/69
f 176/242/70 168/234/70 169/235/70 174/240/70 173/239/70 171/237/70 170/236/70 172/238/70 175/241/70
f 164/230/71 161/227/71 175/241/71 172/238/71
f 161/227/72 167/233/72 176/242/72 175/241/72
f 162/228/73 164/230/73 172/238/73 170/236/73
f 166/232/74 165/231/74 173/239/74 174/240/74
f 165/231/75 163/229/75 171/237/75 173/239/75
f 159/225/76 160/226/76 169/235/76 168/234/76
f 167/233/76 159/225/76 168/234/76 176/242/76
f 160/226/77 166/232/77 174/240/77 169/235/77
f 163/229/78 162/228/78 170/236/78 171/237/78
o Blade
v 0.000000 -0.822211 4.226674
v -0.147356 1.000000 4.226674
v 0.000000 -0.822211 -1.000000
v -0.147356 1.000000 -1.000000
v 0.147356 1.000000 4.226674
v 0.147356 1.000000 -1.000000
v 0.000000 0.739562 5.640046
v -0.147356 -0.385710 4.226674
v -0.147356 -0.385710 -1.000000
v 0.147356 -0.385710 -1.000000
v 0.147356 -0.385710 4.226674
v 0.000000 -0.016109 5.406934
v 0.000000 -1.010146 1.613337
v -0.147356 1.000000 1.613337
v 0.147356 1.000000 1.613337
v 0.147356 -0.385710 1.613337
v -0.147356 -0.385710 1.613337
v 0.073678 0.176926 4.933360
v -0.073678 0.176926 4.933360
v 0.000000 -0.547771 4.866495
v 0.000000 -0.952545 2.920006
v 0.147356 1.000000 2.920006
v 0.147356 -0.385710 2.920006
v -0.147356 1.000000 2.920006
v -0.147356 -0.385710 2.920006
v -0.147356 1.000000 0.306669
v -0.147356 -0.385710 0.306669
v 0.000000 -0.952545 0.306669
v 0.147356 1.000000 0.306669
v 0.147356 -0.385710 0.306669
vn -0.9913 -0.1317 -0.0049
vn -1.0000 -0.0000 -0.0000
vn -0.9898 -0.1424 -0.0071
vn 0.9913 -0.1317 0.0049
vn 1.0000 -0.0000 -0.0000
vn 0.9988 -0.0000 0.0487
vn 0.9869 -0.1403 0.0799
vn -0.9913 -0.0530 0.1205
vn -0.9733 -0.1636 0.1609
vn -0.9895 -0.0743 0.1237
vn -0.9932 -0.0309 0.1121
vn -0.0000 1.0000 -0.0000
vn -0.0000 0.9961 0.0879
vn -0.0000 -0.0000 -1.0000
vn -0.0000 0.9834 0.1812
vn 0.9932 -0.0309 0.1121
vn 0.9913 -0.0530 0.1205
vn 0.9733 -0.1636 0.1609
vn 0.9895 -0.0743 0.1237
vn -0.9988 -0.0000 0.0487
vn -0.9869 -0.1403 0.0799
vn 0.9655 -0.2601 0.0095
vn 0.9659 -0.2461 0.0807
vn -0.9655 -0.2601 -0.0095
vn -0.9594 -0.2818 -0.0141
vn -0.9655 -0.2601 0.0095
vn -0.9913 -0.1317 0.0049
vn -0.9927 -0.1210 -0.0000
vn -0.9707 -0.2402 -0.0000
vn 0.9655 -0.2601 -0.0095
vn 0.9913 -0.1317 -0.0049
vn 0.9927 -0.1210 -0.0000
vn 0.9707 -0.2402 -0.0000
vn -0.9659 -0.2461 0.0807
vn 0.9898 -0.1424 -0.0071
vn 0.9594 -0.2818 -0.0141
vt 0.375000 0.750000
vt 0.375000 0.000000
vt 0.875000 0.750000
vt 0.625000 0.000000
vt 0.125000 0.500000
vt 0.375000 0.250000
vt 0.375000 0.500000
vt 0.625000 0.250000
vt 0.875000 0.500000
vt 0.625000 0.750000
vt 0.625000 0.500000
vt 0.451786 0.000000
vt 0.625000 0.750000
vt 0.451786 0.750000
vt 0.375000 0.750000
vt 0.625000 0.000000
vt 0.451786 0.000000
vt 0.355359 0.500000
vt 0.451786 0.250000
vt 0.451786 0.500000
vt 0.451786 0.750000
vt 0.413393 0.000000
vt 0.375000 0.750000
vt 0.375000 0.625000
vt 0.375000 0.125000
vt 0.875000 0.625000
vt 0.625000 0.125000
vt 0.625000 0.625000
vt 0.451786 0.625000
vt 0.451786 0.125000
vt 0.451786 0.750000
vt 0.413393 0.750000
vt 0.538393 0.000000
vt 0.451786 0.000000
vt 0.375000 0.750000
vt 0.394197 0.000000
vt 0.375000 0.062500
vt 0.375000 0.687500
vt 0.625000 0.687500
vt 0.451786 0.687500
vt 0.625000 0.062500
vt 0.875000 0.687500
vt 0.451786 0.062500
vt 0.875000 0.562500
vt 0.625000 0.187500
vt 0.451786 0.187500
vt 0.375000 0.562500
vt 0.375000 0.187500
vt 0.625000 0.562500
vt 0.451786 0.562500
s 1
usemtl Material.001
f 203/288/79 202/287/80 180/250/80 185/261/81
f 199/282/82 198/281/83 181/252/84 187/263/85
f 195/276/86 196/278/87 188/264/88 183/254/89
f 198/281/90 200/284/90 178/245/91 181/252/91
f 185/260/92 180/251/92 182/253/92 186/262/92
f 181/252/91 178/245/91 183/255/93
f 187/263/85 181/252/84 183/256/94 194/273/95
f 196/277/96 194/274/95 183/257/94 188/265/97
f 179/247/92 185/260/92 186/262/92
f 178/246/98 184/259/99 195/275/86 183/258/89
f 197/280/100 199/282/82 187/263/85 177/243/101
f 204/290/102 203/288/79 185/261/81 179/248/103
f 197/279/104 201/285/105 193/272/106 189/267/107
f 204/289/108 206/292/109 192/271/110 189/266/111
f 205/291/90 202/286/90 190/268/90 191/270/90
f 206/292/109 205/291/83 191/270/83 192/271/110
f 201/285/105 200/283/80 190/269/80 193/272/106
f 177/243/101 187/263/85 194/274/95 196/277/96
f 184/259/99 177/244/112 196/278/87 195/276/86
f 184/259/99 178/246/98 200/283/80 201/285/105
f 177/244/112 184/259/99 201/285/105 197/279/104
f 189/266/111 192/271/110 199/282/82 197/280/100
f 191/270/90 190/268/90 200/284/90 198/281/90
f 192/271/110 191/270/83 198/281/83 199/282/82
f 186/262/113 182/253/83 205/291/83 206/292/109
f 182/253/90 180/251/90 202/286/90 205/291/90
f 179/249/114 186/262/113 206/292/109 204/289/108
f 189/267/107 193/272/106 203/288/79 204/290/102
f 193/272/106 190/269/80 202/287/80 203/288/79
o Idk
v -0.147356 0.042472 -1.000000
v -0.147356 1.000000 -1.000000
v 0.147356 0.042472 -1.000000
v 0.147356 1.000000 -1.000000
v -0.147356 1.000000 -1.821954
v -0.147356 0.042472 -1.821954
v 0.147356 0.042472 -1.821954
v 0.147356 1.000000 -1.821954
vn -0.0000 1.0000 -0.0000
vn -1.0000 -0.0000 -0.0000
vn 1.0000 -0.0000 -0.0000
vn -0.0000 -1.0000 -0.0000
vn -0.0000 -0.0000 1.0000
vn -0.0000 -0.0000 -1.0000
vt 0.375000 0.250000
vt 0.125000 0.500000
vt 0.625000 0.250000
vt 0.875000 0.500000
vt 0.375000 0.500000
vt 0.625000 0.500000
vt 0.625000 0.250000
vt 0.875000 0.500000
vt 0.375000 0.250000
vt 0.125000 0.500000
vt 0.375000 0.500000
vt 0.625000 0.500000
s 1
usemtl Material.001
f 208/296/115 210/298/115 214/304/115 211/300/115
f 207/293/116 208/295/116 211/299/116 212/301/116
f 210/298/117 209/297/117 213/303/117 214/304/117
f 209/297/118 207/294/118 212/302/118 213/303/118
f 207/294/119 209/297/119 210/298/119 208/296/119
f 212/302/120 211/300/120 214/304/120 213/303/120
