# Blender 3.5.1
# www.blender.org
mtllib Lopatka.mtl
o Cube
v -0.045817 -0.565560 1.764780
v 0.226932 -0.565560 1.764780
v -0.045817 0.565560 1.764780
v 0.226932 0.565560 1.764780
v -0.229202 1.698091 4.302369
v -0.229202 1.537580 6.921504
v -0.229202 1.655082 5.814528
v -0.229202 -1.698091 4.302369
v -0.229202 -1.655082 5.814528
v -0.229202 -1.537580 6.921505
v -0.053788 -1.698091 4.302369
v -0.053788 -1.537580 6.921504
v -0.053788 -1.655082 5.814528
v -0.053788 1.698091 4.302369
v -0.053788 1.655082 5.814528
v -0.053788 1.537580 6.921505
v -0.229202 1.698091 3.722410
v -0.218533 1.620593 2.903858
v -0.229202 1.620086 2.987530
v -0.226077 1.675393 3.178265
v -0.218533 -1.620593 2.903858
v -0.229202 -1.698091 3.722410
v -0.229202 -1.620086 2.987530
v -0.226078 -1.675393 3.178265
v -0.053788 -1.698091 3.722410
v -0.032699 -1.620593 2.903858
v -0.053788 -1.620086 2.987530
v -0.047611 -1.675393 3.178265
v -0.032699 1.620593 2.903858
v -0.053788 1.698091 3.722410
v -0.053788 1.620086 2.987530
v -0.047611 1.675393 3.178265
v -0.053788 -0.000000 6.835970
v -0.053788 0.800000 6.835970
v -0.053788 -0.800000 6.835970
v -0.053788 -0.717791 6.815999
v -0.053788 -0.082209 6.815999
v -0.053788 0.082209 6.815999
v -0.053788 0.717791 6.815999
v -0.053788 0.882209 6.815999
v -0.053788 0.648097 6.744401
v -0.053788 0.151903 6.744401
v -0.053788 -0.601529 6.638598
v -0.053788 -0.198471 6.638598
v -0.053788 0.198471 6.638598
v -0.053788 0.998471 6.638598
v -0.053788 0.601529 6.638598
v -0.053788 0.994140 5.322267
v -0.053788 0.984548 6.670230
v -0.053788 -0.648097 6.744401
v -0.053788 -0.151903 6.744401
v -0.053788 0.951903 6.744401
v -0.053788 0.601529 4.005936
v -0.053788 0.198471 4.005936
v -0.053788 0.998471 4.005936
v -0.053788 -0.648097 3.900133
v -0.053788 -0.151903 3.900133
v -0.053788 0.648097 3.900133
v -0.053788 0.151903 3.900133
v -0.053788 -0.717791 3.828536
v -0.053788 -0.082209 3.828536
v -0.053788 0.082209 3.828536
v -0.053788 0.717791 3.828536
v -0.053788 -0.800000 3.808565
v -0.053788 -0.000000 3.808565
v -0.053788 0.800000 3.808565
v -0.053788 -0.882209 3.828536
v -0.053788 0.882209 3.828536
v -0.053788 0.951903 3.900133
v -0.053788 -0.951903 6.744401
v -0.053788 -0.882209 6.815999
v -0.053788 -0.998471 6.638598
v -0.053788 -0.994140 5.322267
v -0.053788 -0.605860 5.322267
v -0.053788 -0.194140 5.322267
v -0.053788 0.194140 5.322267
v -0.053788 0.605860 5.322267
v -0.053788 0.997176 4.399487
v -0.053788 -0.601529 4.005936
v -0.053788 -0.998471 4.005936
v -0.053788 -0.198471 4.005936
v -0.053788 -0.951903 3.900133
v -0.229202 -0.800000 6.835970
v -0.229202 0.000000 6.835970
v -0.229202 0.800000 6.835970
v -0.229202 -0.717791 6.815999
v -0.229202 -0.082209 6.815999
v -0.229202 0.082209 6.815999
v -0.229202 0.717791 6.815999
v -0.229202 -0.951903 6.744401
v -0.229202 -0.882209 6.815999
v -0.229202 0.648097 6.744401
v -0.229202 0.151903 6.744401
v -0.229202 -0.601529 6.638598
v -0.229202 -0.198471 6.638598
v -0.229202 -0.998471 6.638598
v -0.229202 -0.994140 5.322267
v -0.229202 0.198471 6.638598
v -0.229202 0.601529 6.638598
v -0.229202 -0.648097 6.744401
v -0.229202 -0.151903 6.744401
v -0.229202 -0.997889 4.182797
v -0.229202 -0.998471 4.005936
v -0.229202 -0.198471 4.005936
v -0.229202 -0.601529 4.005936
v -0.229202 0.648097 3.900133
v -0.229202 0.151903 3.900133
v -0.229202 -0.151903 3.900133
v -0.229202 -0.648097 3.900133
v -0.229202 -0.951903 3.900133
v -0.229202 -0.717791 3.828536
v -0.229202 -0.082209 3.828536
v -0.229202 0.082209 3.828536
v -0.229202 0.717791 3.828536
v -0.229202 0.800000 3.808565
v -0.229202 0.000000 3.808565
v -0.229202 -0.800000 3.808565
v -0.229202 -0.882209 3.828536
v -0.229202 0.882209 3.828536
v -0.229202 0.882209 6.815999
v -0.229202 0.998471 6.638598
v -0.229202 0.951903 6.744401
v -0.229202 -0.605860 5.322267
v -0.229202 -0.194140 5.322267
v -0.229202 0.194140 5.322267
v -0.229202 0.605860 5.322267
v -0.229202 0.994140 5.322267
v -0.229202 0.198471 4.005936
v -0.229202 0.601529 4.005936
v -0.229202 0.951903 3.900133
v -0.229202 0.998471 4.005936
v -0.229202 1.138164 7.326687
v -0.229202 1.465057 7.104575
v -0.229202 1.332866 7.261632
v -0.229202 -1.465058 7.104575
v -0.229202 -1.138164 7.326687
v -0.229202 -1.332867 7.261632
v -0.053788 -1.138164 7.326687
v -0.053788 -1.465057 7.104575
v -0.053788 -1.332866 7.261632
v -0.053788 1.465058 7.104575
v -0.053788 1.138164 7.326687
v -0.053788 1.332867 7.261632
vn -0.0000 0.9998 -0.0209
vn -0.0000 0.9998 -0.0208
vn -0.0000 0.9999 0.0142
vn -0.9748 0.2039 -0.0901
vn -0.9886 0.0377 -0.1456
vn -0.9890 -0.0000 -0.1476
vn -0.9886 -0.0377 -0.1456
vn -0.9748 -0.2039 -0.0901
vn 1.0000 -0.0000 -0.0000
vn -0.0000 -0.9998 -0.0208
vn -0.0000 -0.9998 -0.0209
vn -0.0000 -0.9999 0.0142
vn -0.0000 0.9710 0.2391
vn -0.0000 0.8585 0.5128
vn -0.0000 -0.7337 -0.6795
vn 0.9945 0.0091 0.1048
vn 0.9745 -0.0000 0.2244
vn 0.9945 -0.0091 0.1048
vn -0.0000 -0.9978 0.0670
vn -0.0000 -0.9710 0.2391
vn 1.0000 0.0036 0.0004
vn 1.0000 -0.0036 0.0004
vn -0.0000 0.9978 0.0670
vn -0.0000 -0.8585 0.5128
vn -0.0000 0.7337 -0.6795
vn -1.0000 0.0018 -0.0002
vn -0.9949 0.1000 -0.0127
vn -0.9949 -0.1000 -0.0127
vn -1.0000 -0.0018 -0.0002
vn 0.9847 0.1735 0.0184
vn 0.7100 0.6822 0.1748
vn 0.7100 -0.6822 0.1748
vn 0.9847 -0.1735 0.0184
vn -0.0000 -0.9806 -0.1958
vn -0.0000 -0.9927 -0.1207
vn -0.0000 -0.9930 -0.1183
vn -0.0000 0.9806 -0.1958
vn -0.0000 0.9930 -0.1183
vn -0.0000 0.9927 -0.1207
vn -1.0000 -0.0000 -0.0000
vn -0.0000 -0.1605 0.9870
vn -0.0000 0.1605 0.9870
vn -0.0000 -0.7166 0.6975
vn -0.0000 -0.2361 -0.9717
vn -0.0000 -0.9153 0.4028
vn -0.0000 -0.7166 -0.6975
vn -0.0000 -1.0000 -0.0033
vn -0.0000 1.0000 -0.0033
vn -0.0000 -0.9153 -0.4028
vn -0.0000 0.9153 0.4028
vn -0.0000 -1.0000 0.0033
vn -0.0000 1.0000 0.0033
vn -0.0000 0.7166 0.6975
vn -0.0000 0.9153 -0.4028
vn -0.0000 0.2361 0.9717
vn -0.0000 0.7166 -0.6975
vn -0.0000 -0.2361 0.9717
vn -0.0000 0.2361 -0.9717
vn -0.0000 -0.0000 -1.0000
vn -0.0000 0.3169 0.9485
vn -0.0000 0.7651 0.6439
vn -0.0000 -0.7651 0.6439
vn -0.0000 -0.3169 0.9485
vt 0.375000 1.000000
vt 0.125000 0.750000
vt 0.625000 1.000000
vt 0.875000 0.750000
vt 0.125000 0.500000
vt 0.375000 0.250000
vt 0.625000 0.250000
vt 0.875000 0.500000
vt 0.375000 0.250000
vt 0.125000 0.500000
vt 0.375000 0.238184
vt 0.125000 0.511816
vt 0.375000 0.250000
vt 0.125000 0.503166
vt 0.375000 1.000000
vt 0.125000 0.750000
vt 0.375000 1.000000
vt 0.375000 0.000000
vt 0.125000 0.746834
vt 0.375000 0.011816
vt 0.125000 0.738184
vt 0.625000 1.000000
vt 0.875000 0.750000
vt 0.875000 0.738184
vt 0.625000 0.011816
vt 0.625000 1.000000
vt 0.625000 0.000000
vt 0.875000 0.746834
vt 0.875000 0.500000
vt 0.625000 0.250000
vt 0.875000 0.503166
vt 0.625000 0.250000
vt 0.875000 0.511816
vt 0.625000 0.238184
vt 0.375000 0.250000
vt 0.125000 0.500000
vt 0.125000 0.500000
vt 0.375000 0.250000
vt 0.125000 0.505742
vt 0.125000 0.500000
vt 0.379454 0.250000
vt 0.125000 0.750000
vt 0.375000 1.000000
vt 0.375000 1.000000
vt 0.125000 0.750000
vt 0.125000 0.744258
vt 0.125000 0.750000
vt 0.379454 1.000000
vt 0.875000 0.750000
vt 0.625000 1.000000
vt 0.875000 0.750000
vt 0.625000 1.000000
vt 0.875000 0.744258
vt 0.601456 1.000000
vt 0.625000 1.000000
vt 0.875000 0.500000
vt 0.625000 0.250000
vt 0.875000 0.500000
vt 0.625000 0.250000
vt 0.875000 0.505742
vt 0.601456 0.250000
vt 0.625000 0.250000
vt 0.875000 0.625000
vt 0.000000 0.000000
vt 0.875000 0.566110
vt 0.000000 0.000000
vt 0.875000 0.683890
vt 0.000000 0.000000
vt 0.875000 0.677838
vt 0.000000 0.000000
vt 0.875000 0.631052
vt 0.000000 0.000000
vt 0.875000 0.618948
vt 0.000000 0.000000
vt 0.875000 0.572162
vt 0.000000 0.000000
vt 0.875000 0.560059
vt 0.000000 0.000000
vt 0.875000 0.577292
vt 0.000000 0.000000
vt 0.875000 0.613818
vt 0.000000 0.000000
vt 0.875000 0.669280
vt 0.000000 0.000000
vt 0.875000 0.639610
vt 0.000000 0.000000
vt 0.875000 0.610390
vt 0.000000 0.000000
vt 0.875000 0.551500
vt 0.000000 0.000000
vt 0.875000 0.580720
vt 0.000000 0.000000
vt 0.875000 0.551819
vt 0.000000 0.000000
vt 0.875000 0.552525
vt 0.000000 0.000000
vt 0.875000 0.672708
vt 0.000000 0.000000
vt 0.875000 0.636182
vt 0.000000 0.000000
vt 0.875000 0.554928
vt 0.000000 0.000000
vt 0.875000 0.580720
vt 0.000000 0.000000
vt 0.875000 0.610390
vt 0.000000 0.000000
vt 0.875000 0.551500
vt 0.000000 0.000000
vt 0.875000 0.672708
vt 0.000000 0.000000
vt 0.875000 0.636182
vt 0.000000 0.000000
vt 0.875000 0.577292
vt 0.000000 0.000000
vt 0.875000 0.613818
vt 0.000000 0.000000
vt 0.875000 0.677838
vt 0.000000 0.000000
vt 0.875000 0.631052
vt 0.000000 0.000000
vt 0.875000 0.618948
vt 0.000000 0.000000
vt 0.875000 0.572162
vt 0.000000 0.000000
vt 0.875000 0.683890
vt 0.000000 0.000000
vt 0.875000 0.625000
vt 0.000000 0.000000
vt 0.875000 0.566110
vt 0.000000 0.000000
vt 0.875000 0.689941
vt 0.000000 0.000000
vt 0.875000 0.560059
vt 0.000000 0.000000
vt 0.875000 0.554928
vt 0.000000 0.000000
vt 0.875000 0.695072
vt 0.000000 0.000000
vt 0.875000 0.689941
vt 0.000000 0.000000
vt 0.875000 0.698500
vt 0.000000 0.000000
vt 0.875000 0.698181
vt 0.000000 0.000000
vt 0.875000 0.669599
vt 0.000000 0.000000
vt 0.875000 0.639291
vt 0.000000 0.000000
vt 0.875000 0.610709
vt 0.000000 0.000000
vt 0.875000 0.580401
vt 0.000000 0.000000
vt 0.875000 0.551596
vt 0.000000 0.000000
vt 0.875000 0.669280
vt 0.000000 0.000000
vt 0.875000 0.698500
vt 0.000000 0.000000
vt 0.875000 0.639610
vt 0.000000 0.000000
vt 0.875000 0.695071
vt 0.000000 0.000000
vt 0.000000 0.000000
vt 0.125000 0.683890
vt 0.000000 0.000000
vt 0.125000 0.625000
vt 0.000000 0.000000
vt 0.125000 0.566110
vt 0.000000 0.000000
vt 0.125000 0.677838
vt 0.000000 0.000000
vt 0.125000 0.631052
vt 0.000000 0.000000
vt 0.125000 0.618948
vt 0.000000 0.000000
vt 0.125000 0.572162
vt 0.000000 0.000000
vt 0.125000 0.695072
vt 0.000000 0.000000
vt 0.125000 0.689941
vt 0.000000 0.000000
vt 0.125000 0.577292
vt 0.000000 0.000000
vt 0.125000 0.613818
vt 0.000000 0.000000
vt 0.125000 0.669280
vt 0.000000 0.000000
vt 0.125000 0.639610
vt 0.000000 0.000000
vt 0.125000 0.698499
vt 0.125000 0.698181
vt 0.000000 0.000000
vt 0.000000 0.000000
vt 0.125000 0.610390
vt 0.000000 0.000000
vt 0.125000 0.580720
vt 0.000000 0.000000
vt 0.125000 0.672708
vt 0.000000 0.000000
vt 0.125000 0.636182
vt 0.000000 0.000000
vt 0.125000 0.698457
vt 0.000000 0.000000
vt 0.125000 0.698499
vt 0.000000 0.000000
vt 0.125000 0.639610
vt 0.000000 0.000000
vt 0.125000 0.669280
vt 0.000000 0.000000
vt 0.125000 0.577292
vt 0.000000 0.000000
vt 0.125000 0.613818
vt 0.000000 0.000000
vt 0.125000 0.636182
vt 0.000000 0.000000
vt 0.125000 0.672708
vt 0.000000 0.000000
vt 0.125000 0.695072
vt 0.000000 0.000000
vt 0.125000 0.677838
vt 0.000000 0.000000
vt 0.125000 0.631052
vt 0.000000 0.000000
vt 0.125000 0.618948
vt 0.000000 0.000000
vt 0.125000 0.572162
vt 0.000000 0.000000
vt 0.125000 0.566110
vt 0.000000 0.000000
vt 0.125000 0.625000
vt 0.000000 0.000000
vt 0.125000 0.683890
vt 0.000000 0.000000
vt 0.125000 0.689941
vt 0.000000 0.000000
vt 0.125000 0.560059
vt 0.000000 0.000000
vt 0.125000 0.560059
vt 0.000000 0.000000
vt 0.125000 0.551500
vt 0.000000 0.000000
vt 0.125000 0.554928
vt 0.125000 0.669599
vt 0.000000 0.000000
vt 0.125000 0.639291
vt 0.000000 0.000000
vt 0.125000 0.610709
vt 0.000000 0.000000
vt 0.125000 0.580401
vt 0.000000 0.000000
vt 0.000000 0.000000
vt 0.125000 0.551819
vt 0.000000 0.000000
vt 0.125000 0.610390
vt 0.000000 0.000000
vt 0.125000 0.580720
vt 0.000000 0.000000
vt 0.125000 0.554928
vt 0.000000 0.000000
vt 0.125000 0.551500
vt 0.375000 0.208783
vt 0.125000 0.541217
vt 0.375000 0.232846
vt 0.125000 0.517154
vt 0.375000 0.226369
vt 0.125000 0.526885
vt 0.375000 0.017154
vt 0.125000 0.732846
vt 0.375000 0.041217
vt 0.125000 0.708783
vt 0.375000 0.023631
vt 0.125000 0.723115
vt 0.875000 0.708783
vt 0.625000 0.041217
vt 0.875000 0.732846
vt 0.625000 0.017154
vt 0.875000 0.723115
vt 0.625000 0.023631
vt 0.875000 0.517154
vt 0.625000 0.232846
vt 0.875000 0.541217
vt 0.625000 0.208783
vt 0.875000 0.526885
vt 0.625000 0.226369
s 1
usemtl Material.002
f 30/59/1 17/35/2 5/9/3 14/30/3
f 19/39/4 18/37/5 3/5/6 1/2/6 21/42/7 23/46/8
f 76/149/9 54/105/9 53/103/9 77/151/9 47/91/9 45/87/9
f 78/153/9 14/29/9 15/31/9 16/33/9 49/95/9 46/89/9 48/93/9
f 74/145/9 79/155/9 81/159/9 75/147/9 44/85/9 43/83/9
f 22/44/10 25/50/11 11/22/12 8/15/12
f 16/34/13 6/11/13 133/263/14 141/280/14
f 1/1/15 2/3/15 26/52/15 21/43/15
f 27/53/16 26/51/17 2/4/17 4/8/17 29/56/17 31/60/18
f 8/15/12 11/22/12 13/26/19 9/17/19
f 9/18/19 13/27/19 12/25/20 10/20/20
f 43/83/9 44/85/9 51/99/9 37/71/9 33/63/9 38/73/9 42/81/9 45/87/9 47/91/9 41/79/9 39/75/9 34/65/9 40/77/9 52/101/9 49/95/9 16/33/9 141/279/9 143/283/9 142/281/9 138/273/9 140/277/9 139/275/9 12/24/9 13/28/9 11/23/9 25/49/21 27/53/16 31/60/18 30/58/22 14/29/9 78/153/9 55/107/9 69/135/9 68/133/9 66/129/9 63/123/9 58/113/9 53/103/9 54/105/9 59/115/9 62/121/9 65/127/9 61/119/9 57/111/9 81/159/9 79/155/9 56/109/9 60/117/9 64/125/9 67/131/9 82/161/9 80/157/9 73/143/9 72/141/9 70/137/9 71/139/9 35/67/9 36/69/9 50/97/9
f 14/30/3 5/9/3 7/13/23 15/32/23
f 15/32/23 7/13/23 6/11/13 16/34/13
f 10/20/20 12/25/20 139/276/24 135/267/24
f 4/7/25 3/6/25 18/38/25 29/57/25
f 17/36/26 20/40/27 19/39/4
f 20/40/27 18/37/5 19/39/4
f 21/42/7 24/47/28 23/46/8
f 24/47/28 22/45/29 23/46/8
f 25/50/21 28/55/30 27/54/16
f 28/55/31 26/52/31 27/54/31
f 29/57/32 32/62/32 31/61/32
f 32/62/33 30/59/22 31/61/18
f 21/43/34 26/52/34 28/55/35 24/48/36
f 24/48/36 28/55/35 25/50/11 22/44/10
f 29/57/37 18/38/37 20/41/38 32/62/39
f 32/62/39 20/41/38 17/35/2 30/59/1
f 105/208/40 123/243/40 94/186/40 95/188/40 124/245/40 104/206/40
f 102/202/40 8/16/40 9/19/40 10/21/40 96/190/40 97/191/40
f 136/269/41 138/274/41 142/282/42 132/261/42
f 128/254/40 125/247/40 98/194/40 99/196/40 126/249/40 129/256/40
f 2/4/59 1/2/59 3/6/59 4/8/59
f 132/261/42 142/282/42 143/284/60 134/265/60
f 134/265/61 143/284/61 141/280/14 133/263/14
f 135/267/24 139/276/24 140/278/62 137/271/62
f 137/271/63 140/278/63 138/274/41 136/269/41
f 129/256/40 106/210/40 114/226/40 115/228/40 119/236/40 130/258/40 131/260/40 127/252/40 121/240/40 122/242/40 120/238/40 85/168/40 89/176/40 92/182/40 99/196/40 98/194/40 93/184/40 88/174/40 84/166/40 87/172/40 101/200/40 95/188/40 94/186/40 100/198/40 86/170/40 83/164/40 91/180/40 90/178/40 96/190/40 10/21/40 135/268/40 137/272/40 136/270/40 132/262/40 134/266/40 133/264/40 6/12/40 7/14/40 5/10/40 17/36/26 19/39/4 23/46/8 22/45/29 8/16/40 102/202/40 103/204/40 110/218/40 118/234/40 117/232/40 111/220/40 109/216/40 105/208/40 104/206/40 108/214/40 112/222/40 116/230/40 113/224/40 107/212/40 128/254/40
s 0
usemtl 
f 113/223/43 62/122/43 59/116/43 107/211/43
f 88/173/44 38/74/44 33/64/44 84/165/44
f 107/211/45 59/116/45 54/106/45 128/253/45
f 93/183/46 42/82/46 38/74/46 88/173/46
f 128/253/47 54/106/47 76/150/47 125/248/47
f 75/148/48 81/160/48 104/205/48 124/246/48
f 98/193/49 45/88/49 42/82/49 93/183/49
f 81/160/50 57/112/50 108/213/50 104/205/50
f 125/248/51 76/150/51 45/88/51 98/193/51
f 44/86/52 75/148/52 124/246/52 95/187/52
f 57/112/53 61/120/53 112/221/53 108/213/53
f 51/100/54 44/86/54 95/187/54 101/199/54
f 61/120/55 65/128/55 116/229/55 112/221/55
f 37/72/56 51/100/56 101/199/56 87/171/56
f 65/128/57 62/122/57 113/223/57 116/229/57
f 84/165/58 33/64/58 37/72/58 87/171/58
f 119/235/43 68/134/43 69/136/43 130/257/43
f 120/237/44 40/78/44 34/66/44 85/167/44
f 130/257/45 69/136/45 55/108/45 131/259/45
f 122/241/46 52/102/46 40/78/46 120/237/46
f 131/259/47 55/108/47 78/154/47 48/94/47 127/251/47
f 77/152/48 53/104/48 129/255/48 126/250/48
f 121/239/49 46/90/49 49/96/49 52/102/49 122/241/49
f 53/104/50 58/114/50 106/209/50 129/255/50
f 127/251/51 48/94/51 46/90/51 121/239/51
f 47/92/52 77/152/52 126/250/52 99/195/52
f 58/114/53 63/124/53 114/225/53 106/209/53
f 41/80/54 47/92/54 99/195/54 92/181/54
f 63/124/55 66/130/55 115/227/55 114/225/55
f 39/76/56 41/80/56 92/181/56 89/175/56
f 66/130/57 68/134/57 119/235/57 115/227/57
f 85/167/58 34/66/58 39/76/58 89/175/58
f 111/219/43 60/118/43 56/110/43 109/215/43
f 86/169/44 36/70/44 35/68/44 83/163/44
f 109/215/45 56/110/45 79/156/45 105/207/45
f 100/197/46 50/98/46 36/70/46 86/169/46
f 105/207/47 79/156/47 74/146/47 123/244/47
f 73/144/48 80/158/48 103/203/48 102/201/48 97/192/48
f 94/185/49 43/84/49 50/98/49 100/197/49
f 80/158/50 82/162/50 110/217/50 103/203/50
f 123/244/51 74/146/51 43/84/51 94/185/51
f 72/142/52 73/144/52 97/192/52 96/189/52
f 82/162/53 67/132/53 118/233/53 110/217/53
f 70/138/54 72/142/54 96/189/54 90/177/54
f 67/132/55 64/126/55 117/231/55 118/233/55
f 71/140/56 70/138/56 90/177/56 91/179/56
f 64/126/57 60/118/57 111/219/57 117/231/57
f 83/163/58 35/68/58 71/140/58 91/179/58
o Cube.001
v -0.045817 -0.565560 1.764780
v 0.226932 -0.565560 1.764780
v -0.045817 0.565560 1.764780
v 0.226932 0.565560 1.764780
v 0.039260 -0.463345 -8.891392
v -0.045817 -0.565560 -8.789175
v 0.226932 -0.565560 -8.789175
v 0.141854 -0.463345 -8.891392
v 0.039260 0.463345 -8.891392
v -0.045817 0.565560 -8.789175
v 0.141854 0.463345 -8.891392
v 0.226932 0.565560 -8.789175
v 0.226932 -0.000000 -7.754695
v 0.226932 -0.114645 -7.777500
v 0.226932 0.114645 -7.777500
v 0.226932 -0.276777 -7.939632
v 0.226932 0.276777 -7.939632
v 0.226932 -0.211836 -7.842440
v 0.226932 0.211836 -7.842440
v 0.226932 -0.276777 -8.168921
v 0.226932 0.276777 -8.168921
v 0.226932 -0.000000 -8.353857
v 0.226932 -0.114645 -8.331053
v 0.226932 0.114645 -8.331053
v 0.226932 -0.211836 -8.266111
v 0.226932 0.211836 -8.266111
v 0.226932 0.299581 -8.054276
v 0.226932 -0.299581 -8.054276
v -0.045817 -0.000000 -7.754695
v -0.045817 -0.114645 -7.777500
v -0.045817 0.114645 -7.777500
v -0.045817 -0.276777 -7.939632
v -0.045817 0.276777 -7.939632
v -0.045817 -0.211836 -7.842440
v -0.045817 0.211836 -7.842440
v -0.045817 -0.276777 -8.168921
v -0.045817 0.276777 -8.168921
v -0.045817 -0.000000 -8.353857
v -0.045817 -0.114645 -8.331053
v -0.045817 0.114645 -8.331053
v -0.045817 -0.211836 -8.266111
v -0.045817 0.211836 -8.266111
v -0.045817 0.299581 -8.054276
v -0.045817 -0.299581 -8.054276
vn -0.0000 -1.0000 -0.0000
vn 1.0000 -0.0000 -0.0000
vn -0.0000 -0.0000 -1.0000
vn -0.0000 1.0000 -0.0000
vn -0.0000 0.7071 -0.7071
vn -0.7686 -0.0000 -0.6397
vn 0.7686 -0.0000 -0.6397
vn -0.0000 -0.7071 -0.7071
vn -1.0000 -0.0000 -0.0000
vn -0.0000 -0.9808 0.1951
vn -0.0000 -0.8315 0.5556
vn -0.0000 -0.5556 0.8315
vn -0.0000 -0.1951 0.9808
vn -0.0000 0.1951 0.9808
vn -0.0000 0.5556 0.8315
vn -0.0000 0.8315 0.5556
vn -0.0000 0.9808 0.1951
vn -0.0000 0.9808 -0.1951
vn -0.0000 0.8315 -0.5556
vn -0.0000 0.5556 -0.8315
vn -0.0000 0.1951 -0.9808
vn -0.0000 -0.1951 -0.9808
vn -0.0000 -0.5556 -0.8315
vn -0.0000 -0.8315 -0.5556
vn -0.0000 -0.9808 -0.1951
vn -0.0000 -0.0000 1.0000
vt 0.375000 1.000000
vt 0.125000 0.750000
vt 0.625000 1.000000
vt 0.875000 0.750000
vt 0.125000 0.500000
vt 0.375000 0.250000
vt 0.625000 0.250000
vt 0.875000 0.500000
vt 0.452981 0.727408
vt 0.375000 0.752398
vt 0.372602 0.750000
vt 0.627398 0.750000
vt 0.625000 0.752398
vt 0.547019 0.727409
vt 0.452981 0.522592
vt 0.375000 0.497602
vt 0.372602 0.500000
vt 0.547019 0.522592
vt 0.625000 0.497602
vt 0.627398 0.500000
vt 0.651668 0.625000
vt 0.250000 0.793655
vt 0.651132 0.650339
vt 0.312500 0.793655
vt 0.651132 0.599661
vt 0.187500 0.793655
vt 0.647329 0.686173
vt 0.437500 0.793655
vt 0.647329 0.563827
vt 0.062500 0.793655
vt 0.649609 0.671820
vt 0.375000 0.793655
vt 0.649609 0.578180
vt 0.125000 0.793655
vt 0.641950 0.686173
vt 0.562500 0.793655
vt 0.641950 0.563827
vt 0.937500 0.793655
vt 0.637611 0.625000
vt 0.750000 0.793655
vt 0.638146 0.650339
vt 0.687500 0.793655
vt 0.638146 0.599661
vt 0.812500 0.793655
vt 0.639669 0.671820
vt 0.625000 0.793655
vt 0.639669 0.578180
vt 0.875000 0.793655
vt 0.644639 0.558787
vt 1.000000 0.793655
vt 0.000000 0.793655
vt 0.644639 0.691213
vt 0.500000 0.793655
vt 0.348332 0.625000
vt 0.250000 0.711733
vt 0.348867 0.650339
vt 0.312500 0.711733
vt 0.348867 0.599661
vt 0.187500 0.711733
vt 0.352671 0.686173
vt 0.437500 0.711733
vt 0.352671 0.563827
vt 0.062500 0.711733
vt 0.350391 0.671820
vt 0.375000 0.711733
vt 0.350391 0.578180
vt 0.125000 0.711733
vt 0.358050 0.686173
vt 0.562500 0.711733
vt 0.358050 0.563827
vt 0.937500 0.711733
vt 0.362389 0.625000
vt 0.750000 0.711733
vt 0.361854 0.650339
vt 0.687500 0.711733
vt 0.361854 0.599661
vt 0.812500 0.711733
vt 0.360331 0.671820
vt 0.625000 0.711733
vt 0.360331 0.578180
vt 0.875000 0.711733
vt 0.355361 0.558787
vt 1.000000 0.711733
vt 0.000000 0.711733
vt 0.355361 0.691213
vt 0.500000 0.711733
s 1
usemtl Material.001
f 149/294/64 150/297/64 145/287/64 144/285/64
f 168/329/65 150/296/65 155/304/65 169/331/65 167/327/65 165/323/65 166/325/65
f 164/321/65 169/331/65 155/304/65 147/292/65 145/288/65 150/296/65 168/329/65 163/319/65 171/336/65 159/311/65 161/315/65 157/307/65 156/305/65 158/309/65 162/317/65 160/313/65 170/333/65
f 152/299/66 154/302/66 151/298/66 148/293/66
f 146/290/67 147/291/67 155/303/67 153/300/67
f 154/302/68 152/299/68 153/300/68 155/303/68
f 149/295/69 153/301/69 152/299/69 148/293/69
f 155/304/70 150/296/70 151/298/70 154/302/70
f 150/297/71 149/294/71 148/293/71 151/298/71
f 179/352/72 184/362/72 149/295/72 144/286/72 146/289/72 153/301/72 185/364/72 180/354/72 186/366/72 176/346/72 178/350/72 174/342/72 172/338/72 173/340/72 177/348/72 175/344/72 187/369/72
f 183/360/72 185/364/72 153/301/72 149/295/72 184/362/72 182/358/72 181/356/72
s 0
f 180/355/73 164/322/73 170/334/73 186/367/73
f 185/365/74 169/332/74 164/322/74 180/355/74
f 167/328/75 169/332/75 185/365/75 183/361/75
f 165/324/76 167/328/76 183/361/76 181/357/76
f 166/326/77 165/324/77 181/357/77 182/359/77
f 168/330/78 166/326/78 182/359/78 184/363/78
f 163/320/79 168/330/79 184/363/79 179/353/79
f 171/337/80 163/320/80 179/353/80 187/370/80
f 159/312/81 171/337/81 187/370/81 175/345/81
f 161/316/82 159/312/82 175/345/82 177/349/82
f 173/341/83 157/308/83 161/316/83 177/349/83
f 172/339/84 156/306/84 157/308/84 173/341/84
f 174/343/85 158/310/85 156/306/85 172/339/85
f 178/351/86 162/318/86 158/310/86 174/343/86
f 176/347/87 160/314/87 162/318/87 178/351/87
f 186/368/88 170/335/88 160/314/88 176/347/88
s 1
f 145/288/89 147/292/89 146/290/89 144/286/89
